<svg height="1012" viewBox="0 0 759 759" width="1012" xmlns="http://www.w3.org/2000/svg"><path d="m421.5 46.2c-1.5 1.8-3.2 4.3-3.8 5.7-1.4 3.4-1.7 635.1-.3 639.8.5 1.8 2.2 4.8 3.9 6.8 2.8 3.5 3 3.5 4.8 1.9 1.1-1 3-3.4 4.2-5.3l2.2-3.6.1-317c.1-174.4-.2-318.5-.7-320.4-.9-3.5-5.6-11.1-6.9-11.1-.5 0-2 1.4-3.5 3.2zm-32.3 48.7c-1.8 2.4-3.5 5.8-4 7.5-.4 1.7-.8 124.6-.7 273.1.1 246.2.2 270.3 1.7 273 .9 1.6 2.7 4 4.1 5.3l2.5 2.3 2.2-2.3c1.2-1.3 3.1-4.1 4.1-6.3 1.8-3.9 1.8-13.2 1.9-272.9 0-202.4-.3-269.8-1.2-272.7-.6-2.2-2.6-5.6-4.3-7.6l-3.2-3.7zm-32.2 44.3c-1.7 2.3-3.4 5.3-3.7 6.7-.4 1.4-.7 107.2-.8 235.1v232.5l2.2 3.6c1.2 1.9 3.1 4.3 4.2 5.3 1.8 1.7 2 1.6 4.1-.6 1.2-1.3 2.9-3.7 3.8-5.3 1.6-2.8 1.7-20.7 2-234.9.1-152.4-.1-233.1-.8-235.5-1-3.7-5.8-11-7.2-11.1-.5 0-2.2 1.9-3.8 4.2zm-32.1 24.6c-1.5 2-3.1 5.3-3.6 7.2-1.3 5.2-.9 421.8.4 425.1.6 1.4 2.3 4 3.8 5.8l2.8 3.2 2.5-2.3c1.3-1.3 3.3-4.1 4.2-6.3 1.6-3.8 1.7-16.8 1.6-215.1l-.1-211.1-3-4.9c-1.7-2.7-3.7-5-4.5-5.1-.8-.2-2.7 1.4-4.1 3.5zm-31.4 22.6c-1.5 2-3.2 5.1-3.9 6.9-.8 2.5-1.1 59.2-1.1 215.8.1 193.3.2 212.7 1.7 215.4 2.5 4.6 5.6 7.8 7.1 7.2.7-.2 2.6-2.4 4.2-4.8l3-4.2.3-213.4.2-213.3-2-4.4c-1.2-2.4-3.2-5.3-4.4-6.5l-2.4-2.2zm160.2 5.1c-1.5 1.9-3.4 5.2-4.1 7.3-1.6 4.9-1.5 415.2.1 419.3.6 1.4 2.3 4 3.8 5.8l2.8 3.2 2.5-2.3c1.3-1.3 3.3-4.1 4.3-6.3 1.8-3.8 1.9-11.9 1.9-210.5v-206.5l-2.4-5c-1.3-2.8-3.2-5.8-4.2-6.7-1.9-1.6-2.1-1.6-4.7 1.7zm-192.6 28.6c-1.8 2.3-3.5 5.4-3.8 6.8-1 3.5-.9 429.9 0 433.3 1 3.8 6.5 9.8 8.3 9.1.8-.3 2.7-2.6 4.2-5.2l2.7-4.6.3-214.8.2-214.8-2.1-4.8c-1.1-2.7-3.1-5.9-4.4-7.1l-2.3-2.2zm224.3 1.4c-1.4 1.9-3.1 5-3.8 6.8-1.5 4.6-1.4 333 .1 336.8.6 1.4 2.3 4 3.8 5.8l2.8 3.2 2.8-2.7c6.3-6.1 6 5.5 5.7-176.9l-.3-166-3-4.7c-1.6-2.6-3.5-5-4.2-5.2-.7-.3-2.4 1-3.9 2.9zm-255.7 12.7c-1.3 1.8-3.1 4.4-3.8 5.8-1.9 3.5-2.1 393.4-.2 398.9.6 1.9 2.5 4.8 4.1 6.4l2.9 2.9 2.3-2.4c1.2-1.2 2.9-3.7 3.8-5.3 1.5-2.8 1.7-18.8 1.8-199.8v-196.9l-2.1-4.6c-1.2-2.6-3.1-5.5-4.3-6.5-2-1.8-2.1-1.8-4.5 1.5zm287.8 24.2c-1.5 2-3.2 5.1-3.9 6.9-.8 2.4-1.1 41.2-1.1 143.3v139.9l2.8 4.8c1.6 2.7 3.6 5.1 4.5 5.4 1.9.8 6.5-4.4 7.9-9 .6-2 .9-54 .9-143.2-.1-132.6-.2-140.2-1.9-143.6-1-2-2.9-4.6-4.1-5.9l-2.4-2.1zm-319.2 13.8c-1.1 1.3-2.9 3.9-3.9 5.8-1.7 3.3-1.8 10.9-1.8 172.5 0 185.4-.5 171.6 5.7 177.3l2.5 2.3 2.2-2.3c1.2-1.3 2.9-3.7 3.8-5.3 1.6-2.8 1.7-16.5 1.7-172.5v-169.5l-3.5-5.3c-1.9-2.8-3.7-5.2-4.1-5.2-.3 0-1.5 1-2.6 2.2zm350.7 37.9c-1.7 2.4-3.4 5.4-3.7 6.8-.4 1.4-.7 52.1-.8 112.7v110.1l3.1 4.9c3.8 6.2 5.8 6.3 9.9.6l3-4.4.1-111.1.1-111.2-2.2-4.5c-1.3-2.5-3.2-5.3-4.3-6.3-2-1.8-2.1-1.8-5.2 2.4zm-382.6 23.1c-1.2 1.2-3 3.9-4 5.8-1.7 3.3-1.8 10.7-1.9 166.5-.1 89.6.3 164.5.8 166.3.4 1.8 2.2 4.8 3.9 6.8l3.1 3.5 2.4-2.3c6.2-5.8 5.8 7.7 5.9-171.8 0-106.9-.3-164.6-1-166.8-.5-1.8-2.3-4.9-4-6.8l-3.1-3.6zm414.5 10.6c-1.5 2-3.1 5.5-3.7 7.7-.5 2.4-.9 38.7-.8 92.5.2 96.6-.1 91.2 5.9 96.8l2.4 2.3 3.1-3.5c1.7-2 3.6-5.4 4.2-7.5.7-2.7 1-32.4.8-92.9l-.3-88.9-3-4.9c-1.7-2.7-3.7-5-4.5-5.1-.8-.2-2.7 1.4-4.1 3.5zm33.1 14.4c-5.5 5.8-5.3 2.8-5.4 89.7-.1 56.7.2 81.1 1 83 .6 1.4 2.4 4.1 3.9 5.9l2.8 3.3 2.4-2.3c6.1-5.6 5.8-.9 5.9-87.8.2-53.6-.1-80.6-.9-83-1.1-3.9-5.5-11-6.8-11-.4 0-1.8 1-2.9 2.2zm30.3 13.4-3.8 5.7v70.6c0 66.6.1 70.7 1.8 74.1 1.1 1.9 2.9 4.6 4.2 5.9l2.4 2.5 2.1-2.5c5.8-6.8 5.5-2.2 5.6-78.4l.2-70-2.4-5.1c-1.3-2.8-3.3-5.9-4.3-6.8-1.9-1.7-2.1-1.6-5.8 4zm33.4 11.6c-5.3 7.1-5.1 4.8-5.2 59.8 0 28.4.3 53.4.7 55.6.5 2.2 2.2 5.7 3.9 7.7 3 3.7 3.2 3.7 5 2.1 1.1-1 3-3.4 4.2-5.3 2.2-3.6 2.2-3.7 2.3-56.6.1-50.5.1-53.2-1.8-57.7-1.1-2.5-3-5.6-4.3-6.8l-2.3-2.1zm-543.4 11c-1.1 1.3-2.9 3.9-3.9 5.8-1.7 3.3-1.8 9.7-1.8 135 0 143.9-.4 134.1 5.6 139.7l2.4 2.3 2.8-2.9c1.5-1.6 3.3-4.5 4-6.5 1-2.8 1.2-32.7 1.2-133.8-.1-123.3-.2-130.5-1.9-133.9-1-2-2.8-4.6-4.1-5.8l-2.2-2.1zm574.5.9c-5.3 7.1-5.2 6.7-5.3 35.6-.1 29.4.2 31.1 5.7 37l2.2 2.3 2.4-2.2c5.7-5.2 6.2-8.2 6.1-35.9 0-27.8-.5-30.9-5.4-36.6l-3.1-3.6zm29.5 9.8c-3.7 4.7-4.4 8-4.5 20.3-.2 11.3-.1 11.8 2.8 16.5 3.8 6.1 5.9 6.2 9.9.5 3-4.3 3-4.5 3-17.1 0-12.5-.1-12.9-3-17.7-1.7-2.7-3.7-5-4.5-5.1s-2.5 1.1-3.7 2.6zm-636.6 87.5c-5.5 7.1-5.3 3.8-5.2 105.1l.1 94 2.6 4c4.3 6.8 5.1 7.1 8.6 3 1.7-1.9 3.6-5.1 4.1-7.2 1.5-5.4 1.5-186.2 0-191.3-.6-2-2.5-5.4-4.3-7.5l-3.2-3.7zm-32.3 54.9c-5 7.5-4.8 4.3-4.8 71.2 0 68.6-.2 65.8 5.6 71.2l2.4 2.3 2.2-2c5.9-5.5 5.7-2.9 5.8-70.5 0-38.6-.3-63.1-.9-65-1.3-3.7-5.9-10.5-7.2-10.5-.5 0-2 1.5-3.1 3.3zm-56.7 64c-4.5 5.4-5.4 10.5-5.2 28.7.2 17.4.7 19.7 5.5 24.7 2.6 2.8 2.8 2.8 5.2 0 4.9-5.5 5.2-7.2 5.3-26.7 0-18.3 0-18.5-2.7-23.1-4.1-7-5-7.4-8.1-3.6zm28.8.3c-4 5.2-5.2 10.6-5 21.9.3 11 1 13.5 5 18.3 2.6 3.1 2.8 3.2 4.7 1.6 5.1-4.7 6.2-8.3 6.4-20.7.2-10.6-.1-12.2-2.2-16.6-1.4-2.7-3.3-5.6-4.3-6.5-1.7-1.6-2-1.5-4.6 2z"/></svg>