<svg width="741" height="657.67" xmlns="http://www.w3.org/2000/svg">

 <g>
  <title>background</title>
  <rect fill="none" id="canvas_background" height="602" width="802" y="-1" x="-1"/>
 </g>
 <g>
  <title>Layer 1</title>
  <path id="svg_1" fill="#ffffff" d="m185,242.18l0,329.63c0,8.38 7.52,14.18 7.52,14.18s7.48,-5.86 7.48,-14.18l0,-329.63c0,-7.82 -7.48,-14.91 -7.48,-14.91s-7.52,7.16 -7.52,14.91"/>
  <path id="svg_2" fill="#ffffff" d="m0,580.56l0,28.44c0,8.39 7.51,14.22 7.51,14.22s7.49,-5.9 7.49,-14.22l0,-28.44c0,-7.83 -7.48,-14.91 -7.48,-14.91s-7.52,7.14 -7.52,14.91"/>
  <path id="svg_3" fill="#ffffff" d="m29,580.52l0,16.09c0,8.37 7.49,14.19 7.49,14.19s7.51,-5.89 7.51,-14.19l0,-16.09c0,-7.83 -7.49,-14.9 -7.49,-14.9s-7.51,7.13 -7.51,14.9"/>
  <path id="svg_4" fill="#ffffff" d="m57,517l0,117.8c0,8.37 7.51,14.17 7.51,14.17s7.49,-5.87 7.49,-14.19l0,-117.78c0,-7.82 -7.47,-14.9 -7.47,-14.9s-7.53,7.13 -7.53,14.9"/>
  <path id="svg_5" fill="#ffffff" d="m89,461.59l0,181.86c0,8.41 7.5,14.19 7.5,14.19s7.5,-5.87 7.5,-14.19l0,-181.86c0,-7.83 -7.49,-14.91 -7.49,-14.91s-7.51,7.14 -7.51,14.91"/>
  <path id="svg_6" fill="#ffffff" d="m121,364.15l0,254.68c0,8.38 7.49,14.21 7.49,14.21s7.51,-5.9 7.51,-14.21l0,-254.68c0,-7.82 -7.5,-14.9 -7.5,-14.9s-7.5,7.14 -7.5,14.9"/>
  <path id="svg_7" fill="#ffffff" d="m153,303.12l0,320.64c0,8.4 7.48,14.22 7.48,14.22s7.52,-5.9 7.52,-14.22l0,-320.64c0,-7.85 -7.5,-14.93 -7.5,-14.93s-7.5,7.15 -7.5,14.93"/>
  <path id="svg_8" fill="#ffffff" d="m217,203.22l0,386.63c0,8.38 7.51,14.18 7.51,14.18s7.49,-5.87 7.49,-14.18l0,-386.63c0,-7.84 -7.49,-14.92 -7.49,-14.92s-7.51,7.16 -7.51,14.92"/>
  <path id="svg_9" fill="#ffffff" d="m249,188.3l0,423.53c0,8.39 7.5,14.2 7.5,14.2s7.5,-5.86 7.5,-14.2l0,-423.53c0,-7.84 -7.48,-14.91 -7.48,-14.91s-7.52,7.15 -7.52,14.91"/>
  <path id="svg_10" fill="#ffffff" d="m281,155.31l0,418.84c0,8.35 7.49,14.18 7.49,14.18s7.51,-5.89 7.51,-14.18l0,-418.84c0,-7.83 -7.49,-14.91 -7.49,-14.91s-7.51,7.14 -7.51,14.91"/>
  <path id="svg_11" fill="#ffffff" d="m313,131.74l0,414.82c0,8.37 7.51,14.19 7.51,14.19s7.49,-5.88 7.49,-14.19l0,-414.82c0,-7.84 -7.48,-14.92 -7.48,-14.92s-7.52,7.18 -7.52,14.92"/>
  <path id="svg_12" fill="#ffffff" d="m345,107.22l0,458.58c0,8.4 7.5,14.2 7.5,14.2s7.5,-5.88 7.5,-14.2l0,-458.58c0,-7.85 -7.5,-14.92 -7.5,-14.92s-7.5,7.14 -7.5,14.92"/>
  <path id="svg_13" fill="#ffffff" d="m377,63.23l0,534.63c0,8.39 7.5,14.22 7.5,14.22s7.5,-5.9 7.5,-14.22l0,-534.63c0,-7.83 -7.47,-14.92 -7.47,-14.92s-7.53,7.15 -7.53,14.92"/>
  <path id="svg_14" fill="#ffffff" d="m409,14.93l0,628.52c0,8.41 7.51,14.22 7.51,14.22s7.49,-5.9 7.49,-14.22l0,-628.52c0,-7.85 -7.47,-14.93 -7.47,-14.93s-7.53,7.15 -7.53,14.93"/>
  <path id="svg_15" fill="#ffffff" d="m441,160.59l0,407.95c0,8.39 7.51,14.21 7.51,14.21s7.49,-5.89 7.49,-14.21l0,-407.95c0,-7.82 -7.48,-14.89 -7.48,-14.89s-7.52,7.14 -7.52,14.89"/>
  <path id="svg_16" fill="#ffffff" d="m473,190.15l0,325.5c0,8.37 7.5,14.19 7.5,14.19s7.5,-5.84 7.5,-14.19l0,-325.5c0,-7.83 -7.49,-14.91 -7.49,-14.91s-7.51,7.14 -7.51,14.91"/>
  <path id="svg_17" fill="#ffffff" d="m505,227.26l0,274c0,8.39 7.51,14.18 7.51,14.18s7.49,-5.86 7.49,-14.18l0,-274c0,-7.84 -7.48,-14.92 -7.48,-14.92s-7.52,7.14 -7.52,14.92"/>
  <path id="svg_18" fill="#ffffff" d="m537,278.33l0,214c0,8.38 7.52,14.2 7.52,14.2s7.48,-5.87 7.48,-14.2l0,-214c0,-7.85 -7.48,-14.94 -7.48,-14.94s-7.52,7.17 -7.52,14.94"/>
  <path fill="#ffffff" id="svg_20" d="m569,311.8l0,172.91c0,8.39 7.51,14.19 7.51,14.19s7.49,-5.9 7.49,-14.19l0,-172.91c0,-7.86 -7.49,-14.92 -7.49,-14.92s-7.51,7.12 -7.51,14.92"/>
  <path fill="#ffffff" id="svg_21" d="m601,327.94l0,153.68c0,8.37 7.49,14.18 7.49,14.18s7.51,-5.8 7.51,-14.18l0,-153.68c0,-7.84 -7.5,-14.91 -7.5,-14.91s-7.5,7.14 -7.5,14.91"/>
  <path fill="#ffffff" id="svg_22" d="m633,338.58l0,133.09c0,8.38 7.49,14.18 7.49,14.18s7.51,-5.85 7.51,-14.18l0,-133.09c0,-7.83 -7.49,-14.9 -7.49,-14.9s-7.51,7.14 -7.51,14.9"/>
  <path fill="#ffffff" id="svg_23" d="m665,352.54l0,98.86c0,8.36 7.51,14.19 7.51,14.19s7.49,-5.89 7.49,-14.19l0,-98.86c0,-7.84 -7.47,-14.9 -7.47,-14.9s-7.53,7.14 -7.53,14.9"/>
  <path fill="#ffffff" id="svg_24" d="m696,364.36l0,47.29c0,8.37 7.5,14.18 7.5,14.18s7.5,-5.83 7.5,-14.18l0,-47.29c0,-7.83 -7.5,-14.91 -7.5,-14.91s-7.5,7.14 -7.5,14.91"/>
  <path fill="#ffffff" id="svg_25" d="m726,373.72l0,15.48c0,8.39 7.49,14.19 7.49,14.19s7.51,-5.88 7.51,-14.19l0,-15.48c0,-7.81 -7.51,-14.91 -7.51,-14.91s-7.49,7.19 -7.49,14.91"/>
 </g>
</svg>