<svg height="657.67" width="741" xmlns="http://www.w3.org/2000/svg"><path d="m-1-1h802v602h-802z" fill="none"/><path d="m185 242.18v329.63c0 8.38 7.52 14.18 7.52 14.18s7.48-5.86 7.48-14.18v-329.63c0-7.82-7.48-14.91-7.48-14.91s-7.52 7.16-7.52 14.91"/><path d="m0 580.56v28.44c0 8.39 7.51 14.22 7.51 14.22s7.49-5.9 7.49-14.22v-28.44c0-7.83-7.48-14.91-7.48-14.91s-7.52 7.14-7.52 14.91"/><path d="m29 580.52v16.09c0 8.37 7.49 14.19 7.49 14.19s7.51-5.89 7.51-14.19v-16.09c0-7.83-7.49-14.9-7.49-14.9s-7.51 7.13-7.51 14.9"/><path d="m57 517v117.8c0 8.37 7.51 14.17 7.51 14.17s7.49-5.87 7.49-14.19v-117.78c0-7.82-7.47-14.9-7.47-14.9s-7.53 7.13-7.53 14.9"/><path d="m89 461.59v181.86c0 8.41 7.5 14.19 7.5 14.19s7.5-5.87 7.5-14.19v-181.86c0-7.83-7.49-14.91-7.49-14.91s-7.51 7.14-7.51 14.91"/><path d="m121 364.15v254.68c0 8.38 7.49 14.21 7.49 14.21s7.51-5.9 7.51-14.21v-254.68c0-7.82-7.5-14.9-7.5-14.9s-7.5 7.14-7.5 14.9"/><path d="m153 303.12v320.64c0 8.4 7.48 14.22 7.48 14.22s7.52-5.9 7.52-14.22v-320.64c0-7.85-7.5-14.93-7.5-14.93s-7.5 7.15-7.5 14.93"/><path d="m217 203.22v386.63c0 8.38 7.51 14.18 7.51 14.18s7.49-5.87 7.49-14.18v-386.63c0-7.84-7.49-14.92-7.49-14.92s-7.51 7.16-7.51 14.92"/><path d="m249 188.3v423.53c0 8.39 7.5 14.2 7.5 14.2s7.5-5.86 7.5-14.2v-423.53c0-7.84-7.48-14.91-7.48-14.91s-7.52 7.15-7.52 14.91"/><path d="m281 155.31v418.84c0 8.35 7.49 14.18 7.49 14.18s7.51-5.89 7.51-14.18v-418.84c0-7.83-7.49-14.91-7.49-14.91s-7.51 7.14-7.51 14.91"/><path d="m313 131.74v414.82c0 8.37 7.51 14.19 7.51 14.19s7.49-5.88 7.49-14.19v-414.82c0-7.84-7.48-14.92-7.48-14.92s-7.52 7.18-7.52 14.92"/><path d="m345 107.22v458.58c0 8.4 7.5 14.2 7.5 14.2s7.5-5.88 7.5-14.2v-458.58c0-7.85-7.5-14.92-7.5-14.92s-7.5 7.14-7.5 14.92"/><path d="m377 63.23v534.63c0 8.39 7.5 14.22 7.5 14.22s7.5-5.9 7.5-14.22v-534.63c0-7.83-7.47-14.92-7.47-14.92s-7.53 7.15-7.53 14.92"/><path d="m409 14.93v628.52c0 8.41 7.51 14.22 7.51 14.22s7.49-5.9 7.49-14.22v-628.52c0-7.85-7.47-14.93-7.47-14.93s-7.53 7.15-7.53 14.93"/><path d="m441 160.59v407.95c0 8.39 7.51 14.21 7.51 14.21s7.49-5.89 7.49-14.21v-407.95c0-7.82-7.48-14.89-7.48-14.89s-7.52 7.14-7.52 14.89"/><path d="m473 190.15v325.5c0 8.37 7.5 14.19 7.5 14.19s7.5-5.84 7.5-14.19v-325.5c0-7.83-7.49-14.91-7.49-14.91s-7.51 7.14-7.51 14.91"/><path d="m505 227.26v274c0 8.39 7.51 14.18 7.51 14.18s7.49-5.86 7.49-14.18v-274c0-7.84-7.48-14.92-7.48-14.92s-7.52 7.14-7.52 14.92"/><path d="m537 278.33v214c0 8.38 7.52 14.2 7.52 14.2s7.48-5.87 7.48-14.2v-214c0-7.85-7.48-14.94-7.48-14.94s-7.52 7.17-7.52 14.94"/><path d="m569 311.8v172.91c0 8.39 7.51 14.19 7.51 14.19s7.49-5.9 7.49-14.19v-172.91c0-7.86-7.49-14.92-7.49-14.92s-7.51 7.12-7.51 14.92"/><path d="m601 327.94v153.68c0 8.37 7.49 14.18 7.49 14.18s7.51-5.8 7.51-14.18v-153.68c0-7.84-7.5-14.91-7.5-14.91s-7.5 7.14-7.5 14.91"/><path d="m633 338.58v133.09c0 8.38 7.49 14.18 7.49 14.18s7.51-5.85 7.51-14.18v-133.09c0-7.83-7.49-14.9-7.49-14.9s-7.51 7.14-7.51 14.9"/><path d="m665 352.54v98.86c0 8.36 7.51 14.19 7.51 14.19s7.49-5.89 7.49-14.19v-98.86c0-7.84-7.47-14.9-7.47-14.9s-7.53 7.14-7.53 14.9"/><path d="m696 364.36v47.29c0 8.37 7.5 14.18 7.5 14.18s7.5-5.83 7.5-14.18v-47.29c0-7.83-7.5-14.91-7.5-14.91s-7.5 7.14-7.5 14.91"/><path d="m726 373.72v15.48c0 8.39 7.49 14.19 7.49 14.19s7.51-5.88 7.51-14.19v-15.48c0-7.81-7.51-14.91-7.51-14.91s-7.49 7.19-7.49 14.91"/></svg>